<?xml version="1.0" encoding="iso-8859-1"?>
<!-- Generator: Adobe Illustrator 19.0.0, SVG Export Plug-In . SVG Version: 6.00 Build 0)  -->
<svg version="1.1" id="Capa_1" xmlns="http://www.w3.org/2000/svg" xmlns:xlink="http://www.w3.org/1999/xlink" fill="#F4870F" x="0px" y="0px"
	 viewBox="0 0 415.7 415.7" style="enable-background:new 0 0 415.7 415.7;" xml:space="preserve">
<g>
	<g>
		<path d="M207.9,53.4c-85.1,0-154.4,69.3-154.4,154.4s69.3,154.4,154.4,154.4s154.4-69.3,154.4-154.4S293,53.4,207.9,53.4z
			 M207.9,192.1c22.9,0,42.6,16,47.3,38.3c5.5,26.1-11.2,51.8-37.3,57.4v19c0,5.5-4.5,10-10,10s-10-4.5-10-10v-19
			c-22.4-4.7-38.4-24.5-38.4-47.3c0-5.5,4.5-10,10-10s10,4.5,10,10c0,15.7,12.7,28.4,28.4,28.4c15.7,0,28.4-12.7,28.4-28.4
			s-12.7-28.4-28.4-28.4c-22.8-0.1-42.6-16-47.3-38.4c-5.6-26.2,11.2-51.9,37.3-57.4v-12.8c0-5.5,4.5-10,10-10s10,4.5,10,10v12.8
			c22.4,4.8,38.4,24.5,38.4,47.4c0,5.5-4.5,10-10,10s-10-4.5-10-10c0-15.7-12.7-28.4-28.4-28.4c-15.7,0-28.4,12.8-28.4,28.4
			C179.5,179.4,192.2,192.1,207.9,192.1z"/>
	</g>
</g>
<g>
	<g>
		<path d="M207.9,0C93.3,0,0,93.3,0,207.9s93.3,207.8,207.9,207.8s207.8-93.3,207.8-207.9S322.5,0,207.9,0z M207.9,382.2
			c-96.2,0-174.4-78.2-174.4-174.4S111.7,33.4,207.9,33.4s174.4,78.2,174.4,174.4S304.1,382.2,207.9,382.2z"/>
	</g>
</g>
<g>
</g>
<g>
</g>
<g>
</g>
<g>
</g>
<g>
</g>
<g>
</g>
<g>
</g>
<g>
</g>
<g>
</g>
<g>
</g>
<g>
</g>
<g>
</g>
<g>
</g>
<g>
</g>
<g>
</g>
</svg>
