<svg id="Capa_1" enable-background="new 0 0 512 512" height="512" viewBox="0 0 512 512" width="512" xmlns="http://www.w3.org/2000/svg"><g><path d="m331 31v15c0 41.355-33.645 75-75 75h-151c-57.897 0-105 47.103-105 105 0 41.802 24.557 77.973 60 94.855v160.145h87.297l18-90h75.703v-60h15c41.355 0 75 33.645 75 75v15h30v-150h15c24.813 0 45-20.187 45-45s-20.187-45-45-45h-15v-150zm-301 195c0-41.355 33.645-75 75-75h45v150h-45c-41.355 0-75-33.645-75-75zm60 225v-121.076c4.901.704 9.907 1.076 15 1.076h41.703l-24 120zm121-90h-39.703l6-30h33.703zm120-28.415c-19.072-19.48-45.648-31.585-75-31.585h-76v-150h76c29.352 0 55.928-12.105 75-31.585zm45-121.585c8.271 0 15 6.729 15 15s-6.729 15-15 15h-15v-30z"/><path d="m451 211h61v30h-61z"/><path d="m436 286h30v60h-30z" transform="matrix(.707 -.707 .707 .707 -91.351 411.459)"/><path d="m421 121h60v30h-60z" transform="matrix(.707 -.707 .707 .707 35.931 358.743)"/></g></svg>