<?xml version="1.0" encoding="utf-8"?>
<!-- Generator: Adobe Illustrator 23.0.2, SVG Export Plug-In . SVG Version: 6.00 Build 0)  -->
<svg version="1.1" id="Capa_1" xmlns="http://www.w3.org/2000/svg" xmlns:xlink="http://www.w3.org/1999/xlink" x="0px" y="0px"
	 viewBox="0 0 1895.5 1005.7" style="enable-background:new 0 0 1895.5 1005.7;" xml:space="preserve">
<style type="text/css">
	.st0{fill:#043C66;}
	.st1{fill:#F4870F;}
	.st2{fill:none;}
</style>
<g>
	<g>
		<path class="st0" d="M987.2,458.8v231c0,17.9-3.3,34.6-10,50c-6.7,15.4-15.8,29.1-27.5,40.9c-11.6,11.8-25.3,21.1-40.9,27.7
			c-15.6,6.7-32.2,10-49.8,10h-25.7v-50.9h25.7c10.7,0,20.8-2,30.3-6c9.5-4,17.8-9.5,24.9-16.6c7-7.1,12.6-15.3,16.6-24.9
			s6-19.6,6-30.3v-231H987.2z"/>
		<path class="st0" d="M1005.5,587.5c0-17.9,3.3-34.6,10-50c6.7-15.4,15.8-29,27.4-40.6c11.6-11.6,25.3-20.8,40.9-27.5
			c15.6-6.7,32.2-10,49.8-10c17.9,0,34.6,3.3,50,10c15.4,6.7,29.1,15.8,40.9,27.5c11.8,11.6,21.1,25.2,27.7,40.6
			c6.7,15.4,10,32.1,10,50c0,17.5-3.3,34.1-10,49.8c-6.7,15.6-15.9,29.4-27.7,41.2c-11.8,11.8-25.4,21.1-40.9,27.7
			c-15.4,6.7-32.1,10-50,10c-17.5,0-34.1-3.3-49.8-10c-15.6-6.7-29.3-15.9-40.9-27.7c-11.6-11.8-20.8-25.5-27.4-41.2
			C1008.8,621.6,1005.5,605,1005.5,587.5z M1055.8,587.5c0,10.7,2,20.8,6,30.3c4,9.5,9.5,17.8,16.6,24.9
			c7.1,7.1,15.3,12.6,24.9,16.6c9.5,4,19.6,6,30.3,6c10.7,0,20.8-2,30.3-6c9.5-4,17.8-9.5,24.9-16.6c7.1-7,12.6-15.3,16.6-24.9
			c4-9.5,6-19.6,6-30.3c0-10.7-2-20.7-6-30c-4-9.3-9.5-17.5-16.6-24.6c-7.1-7-15.3-12.6-24.9-16.6s-19.6-6-30.3-6
			c-10.7,0-20.8,2-30.3,6s-17.8,9.5-24.9,16.6c-7.1,7.1-12.6,15.3-16.6,24.6C1057.8,566.8,1055.8,576.8,1055.8,587.5z"/>
		<path class="st0" d="M1378.3,412.2c-9.5,4-17.8,9.5-24.9,16.6c-7.1,7.1-12.6,15.3-16.6,24.6c-4,9.4-6,19.4-6,30v26.3h102.9v50.9
			h-102.9V715h-50.9V483.4c0-17.9,3.3-34.6,10-50c6.7-15.4,15.9-29,27.7-40.6c11.8-11.6,25.5-20.8,41.2-27.5
			c15.6-6.7,32.2-10,49.8-10h25.2v50.9h-25.2C1397.9,406.2,1387.8,408.2,1378.3,412.2z"/>
		<path class="st0" d="M1503.5,458.2V715h-50.3V458.2H1503.5z"/>
		<path class="st0" d="M1721.4,624.6l36,36l-17.7,17.7c-12.2,12.2-26.1,21.5-41.7,28c-15.6,6.5-32,9.7-49.2,9.7
			c-17.2,0-33.6-3.2-49.2-9.7c-15.6-6.5-29.5-15.8-41.7-28c-12.6-12.6-21.9-26.8-28-42.6c-6.1-15.8-9.2-31.9-9.2-48.3
			c0-16.4,3.1-32.4,9.2-48c6.1-15.6,15.4-29.7,28-42.3c12.6-12.6,26.8-22,42.6-28.3c15.8-6.3,31.9-9.4,48.3-9.4
			c16.4,0,32.5,3.1,48.3,9.4c15.8,6.3,30,15.7,42.6,28.3l17.7,17.7L1615,657.2c14.5,7.2,29.8,9.6,46,7.2c16.2-2.5,30.4-9.8,42.6-22
			L1721.4,624.6z M1593.9,532.6c-15.3,15.3-22.9,33.5-22.9,54.9c0,11.8,2.7,23.1,8,33.7c4.6-4.6,11.5-11.5,20.9-20.9
			c9.3-9.3,19.3-19.2,29.7-29.7c10.5-10.5,20.6-20.5,30.3-30c9.7-9.5,17.2-17,22.6-22.3c-14.5-7.2-29.8-9.7-46-7.4
			C1620.3,513.1,1606.1,520.4,1593.9,532.6z"/>
		<path class="st0" d="M1826,355.3V715h-50.9V355.3H1826z"/>
	</g>
	<path class="st0" d="M672.3,238.8c0.9-3.3,2-6.5,3.3-9.4c-2.4,2.9-10.2,12.5-11.7,14.4C666.5,241.9,669.3,240.3,672.3,238.8z"/>
	<path class="st0" d="M743.6,151.5c0.8-3,1.8-6.1,3.1-9.2c-4,4.9-7.9,9.8-11.9,14.6C737.4,155,740.4,153.2,743.6,151.5z"/>
	<path class="st0" d="M772.4,508.1c5.7,29.7-9.3,54.8-39.2,60.1c-23.3,4.1-50.3-8.1-66.8-14.3c-5.7,5.6-11.6,10.9-17.9,15.7
		c-4.4,3.3-8.9,6.5-13.6,9.4c11.6,19.1,52.8,53.9,67.9,55.4c25.9,2.7,42.6,18.3,44.6,41.9c2,23.3-14.5,46-38,47.1
		c-55,2.5-106.8-11.9-160.1-33.7c15.7-5.9,28.4-10.5,40.9-15.6c15.1-6.1,23.2-17.5,22.5-30.3c-28.7,12.4-60.3,19.3-93.5,19.3
		c-32.1,0-62.7-6.4-90.6-18c-4.8,0.2-9.7,0.2-14.5,0.2c-11.8,0-23.7,2.4-35.4,1.9c-36.8-1.7-60.9-33.7-46.2-65.1
		c11.3-24.2,30.7-33.5,45.4-37.5c-15.9-17.7-28.6-38-37.4-60c-23.3,14.6-64.6,49.7-67.6,82.6c-0.7,7.2-6.2,9.3-13,9.3
		c-22.4,0.2-44.4,4-66.5,6.8c-27.4,3.5-48.3-5.3-58.1-25.7c-10.2-21.3-4-45.4,16.5-63.8c24.9-22.5,26.4-28.6,14.1-60.6
		c-10.1-26.4-3.4-50.5,16.9-62.4c8.2-4.8,12.3-4,18.1,5.1c36.1,55.8,92.4,72.1,130.4,79.6c-1.3-5.5-2.4-11-3.2-16.6
		c-3-20.5-2.8-41.1,0.6-61.2c-78-14.8-80.6-38.5-78.6-58.4c1.9-17.9,10.7-31.9,27.4-37.9c33.4-12.1,66.6,2.4,85.6,13.8
		c0.2-0.3,0.4-0.6,0.6-0.9c30.6-42.6,75.4-71,126-80c6-1.1,12-1.6,17.6-2.1c4.7-3,7.9-4.9,8.9-5c-60.7-23.1-121-15.4-151.4,19.5
		c-6.3,7.2-11,5.1-17.6,2c-63-30.1-128.9-3.1-153,62.9c-3.1,8.6-8.1,13.2-16.7,16.1c-59.7,20.3-88.3,72.4-73.1,133.5
		c2,8,0.6,13.4-4.6,19.7c-16.9,20.3-29.2,43.2-30.3,70.3c-2.9,70.5,57.4,122.7,129.5,112.8c20.7-2.8,41.6-4.7,62.4-7
		c8.6-0.9,14.3,2.1,18.5,10.4c20.9,41,55.6,59.5,100.8,60.5c20.1,0.4,40-0.8,60-2.5c6.4-0.5,12.4,0.1,17.9,4.7
		c52.2,42.9,97.1,92,131.7,150.3c14.7,24.7,27.3,50.5,40.5,75.9c8.3,16,25.4,21.8,40.6,14.9c15.6-7.1,21.4-22.5,14.8-40.2
		c-1.4-3.8-3.4-7.5-5.2-11.1c-21-43-44.5-84.5-75-126.3c7,1.1,10.1,1.4,13.1,2.2c27.6,6.8,55.5,9.5,84,9.1
		c82.5-1.1,132.1-88.3,89.9-159.4c-5.5-9.3-4.8-14.1,3.9-21.2c19.4-15.8,31.7-37,36.6-59.6c-7.7-4.3-65.3-22.8-16.7-84
		c-2.1-3.1-4.5-6.1-7-9c-6-6.9-7.9-13.4-6.4-22.3c1.6-9.5,1.9-18.9,1-28.1c-3.1,0.7-6.3,1.2-9.7,1.5c-9.8,3.2-46.6,8.4-69.1,11.6
		c-0.1,16.6-2.1,32.3-6.1,47.3C740,468.1,766.8,479,772.4,508.1z"/>
	<g>
		<g>
			<g>
				<path class="st0" d="M587.7,224.8c17.7-21.7,35-42.9,52.2-64.1c24.5-30.2,49.1-60.4,73.6-90.5c6.1-7.5,14-11.6,23.7-12.5
					c18.6-1.8,37.2-3.6,55.7-5.8c20.1-2.3,28.5,4.7,30.3,24.6c1.5,17.3,3.4,34.6,5.6,51.9c1.5,12.6-0.1,23.4-9.7,33.1
					c-3.9,3.9-4.1,11.4-5.9,17.3c-0.1,0.4,0.1,1,0.2,1.5c3.2,20.2,1.5,33.2-27,33.8c-8.6,0.2-14.7,4.3-19.7,11.4
					c-4.6,6.7-10.3,12.7-15.6,18.9c-7,8.1-10.9,16.9-8.4,28.1c3.7,16.9-3.8,26.1-21.1,28.2c-9.7,1.1-20.4,0.8-25.5,12.6
					c2.2,2,4.6,3.8,6.6,6c8.7,9,9.3,20.5,0.5,28.5c-9.8,9-12,19.7-10,32c5.1,32.7,3.6,64.9-9.8,95.6
					c-25.8,59.1-70.9,93.8-134.8,103.3c-92.3,13.7-177.2-52.2-190.9-144.1c-13.2-88.8,48.6-174.9,137.3-190.7
					c12-2.1,24.4-1.9,36.6-3.4c3.6-0.4,7.4-2.4,10.3-4.7c3.1-2.5,5.2-6.3,7.9-9.4c10.8-12.8,20.4-14,33.9-4.4
					C584.8,222.8,585.9,223.5,587.7,224.8z M571,264.3c-8.8,17.2-23,19.2-40,18.2c-88.5-5.5-148.6,79.9-130.8,156.8
					c15.1,65.2,81.2,111.2,150.9,98.1c71.2-13.4,119.6-88.8,99.5-158.2c-4.6-16-4-29.6,8.6-41.4c0.3-0.3,0.2-0.9,0.2-1.4
					c-2.2-2.1-4.6-4.1-6.7-6.3c-7.3-7.7-9.5-16.2-3-24.3c14.3-17.5,23.1-41.6,50.7-44.6c-2.3-15.6,5.1-26.6,14.5-37
					c7.7-8.6,15.1-17.4,21.9-26.7c8.8-11.8,18.3-22.1,34.7-23.7c-1.5-14.8,4.1-26.4,13.9-36.3c1-1,1.9-2.7,1.8-4
					c-1.1-12.9-2.5-25.8-3.8-39.3c-10.5,1.2-19.8,2.5-29.2,3.1c-7.1,0.5-12.5,3-17,8.7c-25.9,32-52,63.9-78.1,95.8
					c-17.5,21.4-34.8,42.9-52.5,64.1c-8.5,10.2-18.3,11-29.2,3.4C575.6,268.1,573.9,266.6,571,264.3z"/>
			</g>
			<g>
				<path class="st0" d="M440.3,443.2c-0.2-33.2,27.5-61.2,60.3-61c32.6,0.2,60.1,27.7,60.3,60.4c0.2,32.6-27.5,60.8-59.7,60.8
					C467.9,503.4,440.5,476.3,440.3,443.2z M481.8,442.9c0,11.2,7.6,19.1,18.5,19.2c10.7,0.1,19.9-8.8,20-19.3
					c0.1-10.1-9.6-19.4-20-19.3C489.7,423.6,481.8,431.9,481.8,442.9z"/>
			</g>
		</g>
	</g>
</g>
</svg>
