<svg id="Capa_1" data-name="Capa 1" xmlns="http://www.w3.org/2000/svg" viewBox="0 0 1895.49 1005.73"><defs><style>.cls-1{fill:#fff;}</style></defs><title>jofiel_blanco</title><path class="cls-1" d="M1014.52,489.12v231a124.79,124.79,0,0,1-10,50,133,133,0,0,1-27.45,40.88,126.81,126.81,0,0,1-90.63,37.74H860.7V797.9h25.73a77.36,77.36,0,0,0,77.77-77.77v-231Z"/><path class="cls-1" d="M1032.81,617.78a124.6,124.6,0,0,1,10-50,128.31,128.31,0,0,1,68.33-68.05,129.33,129.33,0,0,1,99.78,0,132.87,132.87,0,0,1,40.88,27.45,127.42,127.42,0,0,1,27.74,40.6,129.45,129.45,0,0,1,0,99.78,130.48,130.48,0,0,1-68.62,68.9,129.33,129.33,0,0,1-99.78,0,126.14,126.14,0,0,1-40.89-27.73,131.75,131.75,0,0,1-27.44-41.17A125.24,125.24,0,0,1,1032.81,617.78Zm50.32,0A77.87,77.87,0,0,0,1105.72,673a76.56,76.56,0,0,0,24.87,16.58,77.6,77.6,0,0,0,108.07-71.76,75.45,75.45,0,0,0-6-30,78.13,78.13,0,0,0-16.58-24.59,78.5,78.5,0,0,0-110.36,0,77.82,77.82,0,0,0-16.59,24.59A75.45,75.45,0,0,0,1083.13,617.78Z"/><path class="cls-1" d="M1405.62,442.52a76.83,76.83,0,0,0-24.87,16.58,77.63,77.63,0,0,0-16.58,24.59,75.32,75.32,0,0,0-6,30V540h102.93V590.9H1358.16V745.29h-50.89V513.71a124.64,124.64,0,0,1,10-50,126.91,126.91,0,0,1,27.73-40.6,132,132,0,0,1,41.17-27.45,125.59,125.59,0,0,1,49.75-10h25.16v50.9h-25.16A77.47,77.47,0,0,0,1405.62,442.52Z"/><path class="cls-1" d="M1530.85,488.55V745.29h-50.32V488.55Z"/><path class="cls-1" d="M1748.7,655l36,36L1767,708.7a128.16,128.16,0,0,1-181.83,0,121.51,121.51,0,0,1-28-42.6,133.3,133.3,0,0,1-9.15-48.32,131,131,0,0,1,9.15-48,122.19,122.19,0,0,1,28-42.32,125.19,125.19,0,0,1,42.6-28.3,128.36,128.36,0,0,1,96.63,0,125.38,125.38,0,0,1,42.6,28.3l17.73,17.73L1642.35,687.54a75.13,75.13,0,0,0,46,7.15q24.3-3.72,42.6-22Zm-127.51-92.06q-22.87,22.88-22.87,54.89a74.41,74.41,0,0,0,8,33.74l20.87-20.88,29.74-29.73q15.72-15.72,30.3-30t22.59-22.3a76.67,76.67,0,0,0-46-7.43Q1639.48,544.58,1621.19,562.89Z"/><path class="cls-1" d="M1853.34,385.62V745.29h-50.89V385.62Z"/><path class="cls-1" d="M614.32,242.62l59.33-72.85q41.83-51.45,83.65-102.9c7-8.56,16-13.12,27-14.17,21.13-2,42.25-4.14,63.34-6.54,22.83-2.6,32.44,5.32,34.42,28,1.72,19.68,3.92,39.33,6.34,58.94,1.76,14.27-.1,26.62-11,37.65-4.4,4.44-4.66,13-6.74,19.65-.16.5.14,1.14.23,1.72,3.58,23,1.73,37.76-30.67,38.38-9.75.19-16.74,4.94-22.34,13-5.26,7.59-11.65,14.43-17.69,21.47-7.95,9.26-12.35,19.16-9.57,32,4.16,19.16-4.35,29.7-24,32-11,1.3-23.18.94-29,14.28,2.48,2.21,5.19,4.33,7.55,6.78,9.84,10.24,10.57,23.26.52,32.44-11.19,10.24-13.58,22.36-11.38,36.43,5.81,37.2,4.06,73.8-11.19,108.68C693.77,594.72,642.52,634.2,570,645c-104.9,15.56-201.44-59.37-217-163.82-15-100.87,55.21-198.75,156.07-216.76,13.65-2.44,27.78-2.14,41.6-3.82,4.1-.49,8.43-2.74,11.72-5.36,3.55-2.83,5.94-7.1,8.94-10.65,12.25-14.49,23.15-15.91,38.55-5.06Zm-19,45c-9.94,19.56-26.19,21.87-45.42,20.67C449.41,302,381,399,401.3,486.5c17.16,74.08,92.27,126.43,171.48,111.55,80.9-15.21,135.88-101,113.07-179.81-5.26-18.16-4.59-33.63,9.77-47,.31-.29.19-1,.27-1.63-2.52-2.38-5.19-4.65-7.58-7.18-8.29-8.78-10.81-18.46-3.36-27.56,16.3-19.88,26.31-47.27,57.59-50.69-2.66-17.73,5.82-30.2,16.43-42.07,8.72-9.74,17.14-19.81,24.91-30.32,10-13.44,20.81-25.13,39.43-27-1.76-16.83,4.64-30,15.84-41.23,1.12-1.12,2.2-3,2.08-4.5-1.27-14.65-2.79-29.28-4.3-44.63C825,95.76,814.4,97.29,803.74,98c-8.08.53-14.18,3.44-19.36,9.85-29.43,36.41-59.12,72.6-88.74,108.85C675.79,241,656.1,265.42,636,289.48c-9.69,11.57-20.84,12.49-33.19,3.86C600.64,291.84,598.65,290.14,595.37,287.58Z"/><path class="cls-1" d="M446.85,490.82c-.19-37.71,31.29-69.52,68.57-69.27,37,.24,68.27,31.52,68.53,68.61s-31.25,69.15-67.82,69.15C478.23,559.31,447,528.48,446.85,490.82Zm47.12-.33c0,12.7,8.67,21.71,21,21.8,12.13.08,22.63-10,22.73-21.88.1-11.45-10.92-22.08-22.75-21.94C502.93,468.61,494,478,494,490.49Z"/><path class="cls-1" d="M824.41,634.74A105.92,105.92,0,0,0,861,575.12c-7.68-4.34-65.3-22.77-16.65-84a104.86,104.86,0,0,0-7-9c-6-6.88-7.86-13.42-6.38-22.33a111.72,111.72,0,0,0,1.05-28.15,62.36,62.36,0,0,1-9.67,1.45,256.85,256.85,0,0,1-39.91,9.43c.29,4.77.45,9.57.45,14.41a237.56,237.56,0,0,1-6,53c10.07,7.49,19.14,15.41,22.74,28.46,8.06,29.2-9.1,55.75-39.15,60.08-9.36,1.35-18.76,2.63-28,4.43a238.36,238.36,0,0,1-33.17,34.42c2.12,15.4,13.53,25.6,30.81,27.4,25.91,2.69,42.56,18.35,44.56,41.91,2,23.32-14.54,46-38,47.12-55,2.52-106.8-11.87-160.14-33.68,15.67-5.94,28.41-10.51,40.94-15.58,15.14-6.12,23.21-17.49,22.54-30.35A237,237,0,0,1,456,675.41q-7.23.23-14.51.24c-11.81,0-23.66,2.44-35.41,1.91-36.79-1.65-58.48-32.69-46.17-65.08A45.45,45.45,0,0,1,363,606a236.36,236.36,0,0,1-33.25-54.6c-13.68,12.39-24.37,28.15-29.56,46.34-2,6.93-6.23,9.26-13,9.31-22.37.17-44.43,4-66.54,6.77-27.38,3.5-48.29-5.33-58.06-25.65-10.21-21.25-4-45.36,16.51-63.84,24.92-22.47,26.36-28.63,14.14-60.59-10.08-26.36-3.38-50.54,16.9-62.39,8.21-4.8,13-4.46,18.15,5.07,17.79,32.78,46.19,50.75,82,57q-.09-3.21-.09-6.43a237.23,237.23,0,0,1,6.3-54.4c-31.52-7.28-41.13-31.52-38.93-52.84,1.86-17.94,11.14-30.74,27.42-37.89s32.07-5.17,46.71,4.93a26.82,26.82,0,0,1,2.88,2.29,236.34,236.34,0,0,1,157.79-96c-41.81-12.34-89.73-.76-120.09,34.09-6.3,7.23-11,5.11-17.62,1.95-63-30.1-128.89-3.11-153,62.88-3.15,8.61-8.15,13.2-16.69,16.1-59.7,20.31-88.28,72.42-73.12,133.52,2,8,.61,13.39-4.64,19.7C110.19,511.6,98,534.45,96.86,561.54,94,632,154.25,684.2,226.37,674.39c20.74-2.82,41.61-4.7,62.42-6.95,8.58-.93,14.31,2.11,18.54,10.38,20.92,41,55.63,59.54,100.78,60.52,20.07.43,40.05-.78,60-2.5,6.38-.55,12.41.14,17.93,4.68,52.15,42.9,97.08,92,131.68,150.31,14.67,24.74,27.35,50.45,40.55,75.93,8.29,16,25.41,21.8,40.58,14.92,15.63-7.09,21.35-22.45,14.78-40.21-1.42-3.83-3.42-7.45-5.21-11.14-21-43-44.46-84.48-75-126.27,7,1.14,10.13,1.42,13.11,2.16a331.22,331.22,0,0,0,84,9.11C813.1,814.22,862.62,727,820.49,656,815,646.61,815.71,641.85,824.41,634.74Z"/></svg>